<svg style="background-color:#dddddd" width="667.175" height="248.07500000000002"><path stroke="black" fill="white" fill-opacity="1.0" d="M 0, 248.07500000000002 L 667.175, 248.07500000000002 L 667.175, 0 L 0, 0 Z"/><path stroke="black" fill="white" fill-opacity="0.0" d="M 38.05, 10.050000000000011 L 10.05, 10.050000000000011 L 10.05, 38.04999999999998 L 38.05, 38.04999999999998 Z"/><path stroke="black" fill="white" fill-opacity="0.0" d="M 85.676, 10.050000000000011 L 57.676, 10.050000000000011 L 57.676, 38.04999999999998 L 85.676, 38.04999999999998 Z"/><path stroke="black" fill="white" fill-opacity="0.0" d="M 123.776, 10.050000000000011 L 95.776, 10.050000000000011 L 95.776, 38.04999999999998 L 123.776, 38.04999999999998 Z"/><path stroke="black" fill="white" fill-opacity="0.0" d="M 161.876, 10.050000000000011 L 133.876, 10.050000000000011 L 133.876, 38.04999999999998 L 161.876, 38.04999999999998 Z"/><path stroke="black" fill="white" fill-opacity="0.0" d="M 199.976, 10.050000000000011 L 171.976, 10.050000000000011 L 171.976, 38.04999999999998 L 199.976, 38.04999999999998 Z"/><path stroke="black" fill="white" fill-opacity="0.0" d="M 247.6, 10.050000000000011 L 219.6, 10.050000000000011 L 219.6, 38.04999999999998 L 247.6, 38.04999999999998 Z"/><path stroke="black" fill="white" fill-opacity="0.0" d="M 285.7, 10.050000000000011 L 257.7, 10.050000000000011 L 257.7, 38.04999999999998 L 285.7, 38.04999999999998 Z"/><path stroke="black" fill="white" fill-opacity="0.0" d="M 323.8, 10.050000000000011 L 295.8, 10.050000000000011 L 295.8, 38.04999999999998 L 323.8, 38.04999999999998 Z"/><path stroke="black" fill="white" fill-opacity="0.0" d="M 361.9, 10.050000000000011 L 333.9, 10.050000000000011 L 333.9, 38.04999999999998 L 361.9, 38.04999999999998 Z"/><path stroke="black" fill="white" fill-opacity="0.0" d="M 409.526, 10.050000000000011 L 381.526, 10.050000000000011 L 381.526, 38.04999999999998 L 409.526, 38.04999999999998 Z"/><path stroke="black" fill="white" fill-opacity="0.0" d="M 447.626, 10.050000000000011 L 419.626, 10.050000000000011 L 419.626, 38.04999999999998 L 447.626, 38.04999999999998 Z"/><path stroke="black" fill="white" fill-opacity="0.0" d="M 485.726, 10.050000000000011 L 457.726, 10.050000000000011 L 457.726, 38.04999999999998 L 485.726, 38.04999999999998 Z"/><path stroke="black" fill="white" fill-opacity="0.0" d="M 523.826, 10.050000000000011 L 495.826, 10.050000000000011 L 495.826, 38.04999999999998 L 523.826, 38.04999999999998 Z"/><path stroke="black" fill="white" fill-opacity="0.0" d="M 571.45, 10.050000000000011 L 543.45, 10.050000000000011 L 543.45, 38.04999999999998 L 571.45, 38.04999999999998 Z"/><path stroke="black" fill="white" fill-opacity="0.0" d="M 619.074, 10.050000000000011 L 591.074, 10.050000000000011 L 591.074, 38.04999999999998 L 619.074, 38.04999999999998 Z"/><path stroke="black" fill="white" fill-opacity="0.0" d="M 657.176, 10.050000000000011 L 629.176, 10.050000000000011 L 629.176, 38.04999999999998 L 657.176, 38.04999999999998 Z"/><path stroke="black" fill="white" fill-opacity="0.0" d="M 38.05, 57.67400000000001 L 10.05, 57.67400000000001 L 10.05, 85.674 L 38.05, 85.674 Z"/><path stroke="black" fill="white" fill-opacity="0.0" d="M 76.15, 57.67400000000001 L 48.15, 57.67400000000001 L 48.15, 85.674 L 76.15, 85.674 Z"/><path stroke="black" fill="white" fill-opacity="0.0" d="M 114.25, 57.67400000000001 L 86.25, 57.67400000000001 L 86.25, 85.674 L 114.25, 85.674 Z"/><path stroke="black" fill="white" fill-opacity="0.0" d="M 152.35, 57.67400000000001 L 124.35, 57.67400000000001 L 124.35, 85.674 L 152.35, 85.674 Z"/><path stroke="black" fill="white" fill-opacity="0.0" d="M 190.45, 57.67400000000001 L 162.45, 57.67400000000001 L 162.45, 85.674 L 190.45, 85.674 Z"/><path stroke="black" fill="white" fill-opacity="0.0" d="M 228.55, 57.67400000000001 L 200.55, 57.67400000000001 L 200.55, 85.674 L 228.55, 85.674 Z"/><path stroke="black" fill="white" fill-opacity="0.0" d="M 266.65, 57.67400000000001 L 238.65, 57.67400000000001 L 238.65, 85.674 L 266.65, 85.674 Z"/><path stroke="black" fill="white" fill-opacity="0.0" d="M 304.75, 57.67400000000001 L 276.75, 57.67400000000001 L 276.75, 85.674 L 304.75, 85.674 Z"/><path stroke="black" fill="white" fill-opacity="0.0" d="M 342.85, 57.67400000000001 L 314.85, 57.67400000000001 L 314.85, 85.674 L 342.85, 85.674 Z"/><path stroke="black" fill="white" fill-opacity="0.0" d="M 380.95, 57.67400000000001 L 352.95, 57.67400000000001 L 352.95, 85.674 L 380.95, 85.674 Z"/><path stroke="black" fill="white" fill-opacity="0.0" d="M 419.05, 57.67400000000001 L 391.05, 57.67400000000001 L 391.05, 85.674 L 419.05, 85.674 Z"/><path stroke="black" fill="white" fill-opacity="0.0" d="M 457.15, 57.67400000000001 L 429.15, 57.67400000000001 L 429.15, 85.674 L 457.15, 85.674 Z"/><path stroke="black" fill="white" fill-opacity="0.0" d="M 495.25, 57.67400000000001 L 467.25, 57.67400000000001 L 467.25, 85.674 L 495.25, 85.674 Z"/><path stroke="black" fill="white" fill-opacity="0.0" d="M 517.6, 85.214 L 521.25, 85.214 L 521.25, 72.674 L 524.4, 72.674 L 524.4, 85.674 L 552.4, 85.674 L 552.4, 72.674 L 555.55, 72.674 L 555.55, 85.214 L 559.2, 85.214 L 559.2, 87.61600000000001 L 565.2, 87.61600000000001 L 565.2, 85.214 L 568.85, 85.214 L 568.85, 72.674 L 570.6, 72.674 L 570.6, 67.07399999999998 L 568.85, 67.07399999999998 L 568.85, 60.614000000000004 L 555.55, 60.614000000000004 L 555.55, 67.07399999999998 L 552.4, 67.07399999999998 L 552.4, 57.67400000000001 L 524.4, 57.67400000000001 L 524.4, 67.07399999999998 L 521.25, 67.07399999999998 L 521.25, 60.614000000000004 L 507.95, 60.614000000000004 L 507.95, 67.07399999999998 L 506.2, 67.07399999999998 L 506.2, 72.674 L 507.95, 72.674 L 507.95, 85.214 L 511.6, 85.214 L 511.6, 87.61600000000001 L 517.6, 87.61600000000001 Z"/><path stroke="black" fill="white" fill-opacity="0.0" d="M 619.074, 57.67400000000001 L 591.074, 57.67400000000001 L 591.074, 85.674 L 619.074, 85.674 Z"/><path stroke="black" fill="white" fill-opacity="0.0" d="M 657.176, 57.67400000000001 L 629.176, 57.67400000000001 L 629.176, 85.674 L 657.176, 85.674 Z"/><path stroke="black" fill="white" fill-opacity="0.0" d="M 47.576, 95.774 L 19.576, 95.774 L 19.576, 123.774 L 47.576, 123.774 Z"/><path stroke="black" fill="white" fill-opacity="0.0" d="M 95.2, 95.774 L 67.2, 95.774 L 67.2, 123.774 L 95.2, 123.774 Z"/><path stroke="black" fill="white" fill-opacity="0.0" d="M 133.3, 95.774 L 105.3, 95.774 L 105.3, 123.774 L 133.3, 123.774 Z"/><path stroke="black" fill="white" fill-opacity="0.0" d="M 171.4, 95.774 L 143.4, 95.774 L 143.4, 123.774 L 171.4, 123.774 Z"/><path stroke="black" fill="white" fill-opacity="0.0" d="M 209.5, 95.774 L 181.5, 95.774 L 181.5, 123.774 L 209.5, 123.774 Z"/><path stroke="black" fill="white" fill-opacity="0.0" d="M 247.6, 95.774 L 219.6, 95.774 L 219.6, 123.774 L 247.6, 123.774 Z"/><path stroke="black" fill="white" fill-opacity="0.0" d="M 285.7, 95.774 L 257.7, 95.774 L 257.7, 123.774 L 285.7, 123.774 Z"/><path stroke="black" fill="white" fill-opacity="0.0" d="M 323.8, 95.774 L 295.8, 95.774 L 295.8, 123.774 L 323.8, 123.774 Z"/><path stroke="black" fill="white" fill-opacity="0.0" d="M 361.9, 95.774 L 333.9, 95.774 L 333.9, 123.774 L 361.9, 123.774 Z"/><path stroke="black" fill="white" fill-opacity="0.0" d="M 400, 95.774 L 372, 95.774 L 372, 123.774 L 400, 123.774 Z"/><path stroke="black" fill="white" fill-opacity="0.0" d="M 438.1, 95.774 L 410.1, 95.774 L 410.1, 123.774 L 438.1, 123.774 Z"/><path stroke="black" fill="white" fill-opacity="0.0" d="M 476.2, 95.774 L 448.2, 95.774 L 448.2, 123.774 L 476.2, 123.774 Z"/><path stroke="black" fill="white" fill-opacity="0.0" d="M 514.3, 95.774 L 486.3, 95.774 L 486.3, 123.774 L 514.3, 123.774 Z"/><path stroke="black" fill="white" fill-opacity="0.0" d="M 561.926, 95.774 L 533.926, 95.774 L 533.926, 123.774 L 561.926, 123.774 Z"/><path stroke="black" fill="white" fill-opacity="0.0" d="M 619.074, 95.774 L 591.074, 95.774 L 591.074, 123.774 L 619.074, 123.774 Z"/><path stroke="black" fill="white" fill-opacity="0.0" d="M 657.176, 95.774 L 629.176, 95.774 L 629.176, 123.774 L 657.176, 123.774 Z"/><path stroke="black" fill="white" fill-opacity="0.0" d="M 52.338, 133.874 L 24.338, 133.874 L 24.338, 161.874 L 52.338, 161.874 Z"/><path stroke="black" fill="white" fill-opacity="0.0" d="M 104.726, 133.874 L 76.726, 133.874 L 76.726, 161.874 L 104.726, 161.874 Z"/><path stroke="black" fill="white" fill-opacity="0.0" d="M 142.826, 133.874 L 114.826, 133.874 L 114.826, 161.874 L 142.826, 161.874 Z"/><path stroke="black" fill="white" fill-opacity="0.0" d="M 180.926, 133.874 L 152.926, 133.874 L 152.926, 161.874 L 180.926, 161.874 Z"/><path stroke="black" fill="white" fill-opacity="0.0" d="M 219.026, 133.874 L 191.026, 133.874 L 191.026, 161.874 L 219.026, 161.874 Z"/><path stroke="black" fill="white" fill-opacity="0.0" d="M 257.126, 133.874 L 229.126, 133.874 L 229.126, 161.874 L 257.126, 161.874 Z"/><path stroke="black" fill="white" fill-opacity="0.0" d="M 295.226, 133.874 L 267.226, 133.874 L 267.226, 161.874 L 295.226, 161.874 Z"/><path stroke="black" fill="white" fill-opacity="0.0" d="M 333.326, 133.874 L 305.326, 133.874 L 305.326, 161.874 L 333.326, 161.874 Z"/><path stroke="black" fill="white" fill-opacity="0.0" d="M 371.426, 133.874 L 343.426, 133.874 L 343.426, 161.874 L 371.426, 161.874 Z"/><path stroke="black" fill="white" fill-opacity="0.0" d="M 409.526, 133.874 L 381.526, 133.874 L 381.526, 161.874 L 409.526, 161.874 Z"/><path stroke="black" fill="white" fill-opacity="0.0" d="M 447.626, 133.874 L 419.626, 133.874 L 419.626, 161.874 L 447.626, 161.874 Z"/><path stroke="black" fill="white" fill-opacity="0.0" d="M 485.726, 133.874 L 457.726, 133.874 L 457.726, 161.874 L 485.726, 161.874 Z"/><path stroke="black" fill="white" fill-opacity="0.0" d="M 512.838, 161.416 L 516.488, 161.416 L 516.488, 148.874 L 519.638, 148.874 L 519.638, 161.874 L 547.638, 161.874 L 547.638, 148.874 L 550.788, 148.874 L 550.788, 161.416 L 554.438, 161.416 L 554.438, 163.814 L 560.438, 163.814 L 560.438, 161.416 L 564.088, 161.416 L 564.088, 148.874 L 565.838, 148.874 L 565.838, 143.274 L 564.088, 143.274 L 564.088, 136.814 L 550.788, 136.814 L 550.788, 143.274 L 547.638, 143.274 L 547.638, 133.874 L 519.638, 133.874 L 519.638, 143.274 L 516.488, 143.274 L 516.488, 136.814 L 503.188, 136.814 L 503.188, 143.274 L 501.438, 143.274 L 501.438, 148.874 L 503.188, 148.874 L 503.188, 161.416 L 506.838, 161.416 L 506.838, 163.814 L 512.838, 163.814 Z"/><path stroke="black" fill="white" fill-opacity="0.0" d="M 27.062, 199.516 L 30.712, 199.516 L 30.712, 186.976 L 33.862, 186.976 L 33.862, 199.976 L 61.862, 199.976 L 61.862, 186.976 L 65.012, 186.976 L 65.012, 199.516 L 68.662, 199.516 L 68.662, 201.916 L 74.662, 201.916 L 74.662, 199.516 L 78.312, 199.516 L 78.312, 186.976 L 80.062, 186.976 L 80.062, 181.374 L 78.312, 181.374 L 78.312, 174.916 L 65.012, 174.916 L 65.012, 181.374 L 61.862, 181.374 L 61.862, 171.976 L 33.862, 171.976 L 33.862, 181.374 L 30.712, 181.374 L 30.712, 174.916 L 17.412, 174.916 L 17.412, 181.374 L 15.662, 181.374 L 15.662, 186.976 L 17.412, 186.976 L 17.412, 199.516 L 21.062, 199.516 L 21.062, 201.916 L 27.062, 201.916 Z"/><path stroke="black" fill="white" fill-opacity="0.0" d="M 123.776, 171.976 L 95.776, 171.976 L 95.776, 199.976 L 123.776, 199.976 Z"/><path stroke="black" fill="white" fill-opacity="0.0" d="M 161.876, 171.976 L 133.876, 171.976 L 133.876, 199.976 L 161.876, 199.976 Z"/><path stroke="black" fill="white" fill-opacity="0.0" d="M 199.976, 171.976 L 171.976, 171.976 L 171.976, 199.976 L 199.976, 199.976 Z"/><path stroke="black" fill="white" fill-opacity="0.0" d="M 238.076, 171.976 L 210.076, 171.976 L 210.076, 199.976 L 238.076, 199.976 Z"/><path stroke="black" fill="white" fill-opacity="0.0" d="M 276.176, 171.976 L 248.176, 171.976 L 248.176, 199.976 L 276.176, 199.976 Z"/><path stroke="black" fill="white" fill-opacity="0.0" d="M 314.276, 171.976 L 286.276, 171.976 L 286.276, 199.976 L 314.276, 199.976 Z"/><path stroke="black" fill="white" fill-opacity="0.0" d="M 352.376, 171.976 L 324.376, 171.976 L 324.376, 199.976 L 352.376, 199.976 Z"/><path stroke="black" fill="white" fill-opacity="0.0" d="M 390.476, 171.976 L 362.476, 171.976 L 362.476, 199.976 L 390.476, 199.976 Z"/><path stroke="black" fill="white" fill-opacity="0.0" d="M 428.576, 171.976 L 400.576, 171.976 L 400.576, 199.976 L 428.576, 199.976 Z"/><path stroke="black" fill="white" fill-opacity="0.0" d="M 466.676, 171.976 L 438.676, 171.976 L 438.676, 199.976 L 466.676, 199.976 Z"/><path stroke="black" fill="white" fill-opacity="0.0" d="M 503.312, 199.516 L 506.962, 199.516 L 506.962, 186.976 L 510.112, 186.976 L 510.112, 199.976 L 538.112, 199.976 L 538.112, 186.976 L 541.262, 186.976 L 541.262, 199.516 L 544.912, 199.516 L 544.912, 201.916 L 550.912, 201.916 L 550.912, 199.516 L 554.562, 199.516 L 554.562, 186.976 L 556.312, 186.976 L 556.312, 181.374 L 554.562, 181.374 L 554.562, 174.916 L 541.262, 174.916 L 541.262, 181.374 L 538.112, 181.374 L 538.112, 171.976 L 510.112, 171.976 L 510.112, 181.374 L 506.962, 181.374 L 506.962, 174.916 L 493.662, 174.916 L 493.662, 181.374 L 491.912, 181.374 L 491.912, 186.976 L 493.662, 186.976 L 493.662, 199.516 L 497.312, 199.516 L 497.312, 201.916 L 503.312, 201.916 Z"/><path stroke="black" fill="white" fill-opacity="0.0" d="M 619.074, 171.976 L 591.074, 171.976 L 591.074, 199.976 L 619.074, 199.976 Z"/><path stroke="black" fill="white" fill-opacity="0.0" d="M 42.812, 210.076 L 14.812, 210.076 L 14.812, 238.076 L 42.812, 238.076 Z"/><path stroke="black" fill="white" fill-opacity="0.0" d="M 90.438, 210.076 L 62.438, 210.076 L 62.438, 238.076 L 90.438, 238.076 Z"/><path stroke="black" fill="white" fill-opacity="0.0" d="M 138.062, 210.076 L 110.062, 210.076 L 110.062, 238.076 L 138.062, 238.076 Z"/><path stroke="black" fill="white" fill-opacity="0.0" d="M 169.938, 237.616 L 173.588, 237.616 L 173.588, 228.674 L 252.938, 228.674 L 252.938, 238.076 L 280.938, 238.076 L 280.938, 228.674 L 360.288, 228.674 L 360.288, 237.616 L 363.938, 237.616 L 363.938, 240.016 L 369.938, 240.016 L 369.938, 237.616 L 373.588, 237.616 L 373.588, 225.076 L 375.388, 225.076 L 375.388, 219.474 L 373.588, 219.474 L 373.588, 213.016 L 360.288, 213.016 L 360.288, 219.474 L 358.488, 219.474 L 358.488, 219.476 L 280.938, 219.476 L 280.938, 210.076 L 252.938, 210.076 L 252.938, 219.476 L 175.388, 219.476 L 175.388, 219.474 L 173.588, 219.474 L 173.588, 213.016 L 160.288, 213.016 L 160.288, 219.474 L 158.488, 219.474 L 158.488, 225.076 L 160.288, 225.076 L 160.288, 237.616 L 163.938, 237.616 L 163.938, 240.016 L 169.938, 240.016 Z"/><path stroke="black" fill="white" fill-opacity="0.0" d="M 423.812, 210.076 L 395.812, 210.076 L 395.812, 238.076 L 423.812, 238.076 Z"/><path stroke="black" fill="white" fill-opacity="0.0" d="M 471.438, 210.076 L 443.438, 210.076 L 443.438, 238.076 L 471.438, 238.076 Z"/><path stroke="black" fill="white" fill-opacity="0.0" d="M 519.062, 210.076 L 491.062, 210.076 L 491.062, 238.076 L 519.062, 238.076 Z"/><path stroke="black" fill="white" fill-opacity="0.0" d="M 580.976, 210.076 L 552.976, 210.076 L 552.976, 238.076 L 580.976, 238.076 Z"/><path stroke="black" fill="white" fill-opacity="0.0" d="M 619.074, 210.076 L 591.074, 210.076 L 591.074, 238.076 L 619.074, 238.076 Z"/><path stroke="black" fill="white" fill-opacity="0.0" d="M 657.176, 210.076 L 629.176, 210.076 L 629.176, 238.076 L 657.176, 238.076 Z"/></svg>